<?xml version="1.0" encoding="UTF-8"?>
<svg id="Layer_1" xmlns="http://www.w3.org/2000/svg" version="1.1" viewBox="0 0 405.3 400.6">
  <!-- Generator: Adobe Illustrator 29.5.0, SVG Export Plug-In . SVG Version: 2.1.0 Build 137)  -->
  <path d="M106.6,147.1c-26.3-14.5-52.7-29.4-79.1-44-6.8-3.8-13.8-7-20.5-11-.4-.2-1.2-.2-.8-.9.3-.6,8.3-4.4,9.6-5C77.9,57.1,140.3,28.6,202.5,0c1.2-.1,4.1,1.4,5.5,2,63.8,28,126.1,59.6,189.7,88l1.5,1.2c0,.6-9.4,5.8-10.8,6.5-61.6,34.5-124.1,67.6-185.6,102.3-31.9-17.9-64.2-35.2-96.2-52.9h0ZM319.4,93.6c-.7,0-1.4,0-2.1-.4-38.2-17.6-76.2-35.7-114.4-53.2l-116.4,53.8,116.5,64.1,116.4-64.3h0Z"/>
  <path d="M90.1,159.7v184.5L0,294.8V110.5l90.1,49.2ZM56.8,283.7v-100.7l-24-13.5.2,101.6c.2.8,2.1,1.8,3,2.3,4.3,2.9,15.3,9.3,19.9,11.1.5.2.8.4,1.3.2.2-.5-.4-.9-.4-1.1h0Z"/>
  <path d="M315.4,160.8c.1-.6.6-1.5,1.2-1.9,1.8-1.3,5.8-2.8,8-4,18.8-10.4,37.5-20.8,56.4-31.1.8-.2,2.5,1.2,3.4,1.8,7.1,4.7,13.8,10.5,21,15.1l-.2,132.1-19.6,33.3-70.2,38.1v-183.4h0ZM348.7,182.3v101.4c0,.2-.9.4.2,1.1l23.3-13c.7-.9.5-2.9.4-4-.9-25.9-.8-52.5-.5-78.5,0-.9.5-1.8.5-2.7v-17.1s-24,12.9-24,12.9h0Z"/>
  <path d="M303.4,166.8v82.7c0,3.2-3.5,10.1-5.4,12.8-.6.8-2.6,2.4-2.6,3.2,5.3,2,7.5,5.5,8,11.1l-.2,74.3-90.7,49.7v-41.2l58.1-32.2v-29.9l-58.1,31.9v-41.7l58.1-32.2v-29.9l-58.1,32.4v-41.7l90.9-49.2h0Z"/>
  <path d="M102,166.8l90.9,49.3-.3,41.5-57.3,69.5,57.7,32.2v41.2l-90.9-50v-40.4c19.4-22.5,38-46.1,57.6-68.6l.5-1.4-58.2-32.8v-40.6h0Z"/>
</svg>